<?xml version="1.0" encoding="UTF-8"?>
<svg version="1.1" xmlns="http://www.w3.org/2000/svg" width="512" height="512">
<path d="M0 0 C4.94881716 4.26524268 8.22515093 9.56296763 11.76171875 15.0078125 C12.70951958 16.45146683 12.70951958 16.45146683 13.6764679 17.92428589 C15.68577841 20.98754355 17.68675241 24.05614435 19.6875 27.125 C21.04437051 29.19697576 22.40178658 31.26859436 23.75976562 33.33984375 C26.74231206 37.89075264 29.71957587 42.44506601 32.69218445 47.00247192 C33.78643904 48.67381179 34.89188031 50.33782046 36 52 C35.85864258 54.67163086 35.85864258 54.67163086 35.39453125 57.96484375 C32.87483108 86.46289051 48.13325789 105.19728536 64.66526794 127.19088745 C67.09877773 130.48929709 68.25043165 132.29967686 68.22705078 136.37963867 C68.22682419 137.70066841 68.22682419 137.70066841 68.22659302 139.04838562 C68.21627045 139.99534805 68.20594788 140.94231049 68.1953125 141.91796875 C68.1924826 142.89034988 68.18965271 143.86273102 68.18673706 144.86457825 C68.17553599 147.97234366 68.15043148 151.07982159 68.125 154.1875 C68.11497011 156.29361563 68.10584427 158.39973578 68.09765625 160.50585938 C68.07559688 165.6706838 68.04106746 170.83529315 68 176 C73.28 176 78.56 176 84 176 C83.99111755 174.75607483 83.98223511 173.51214966 83.9730835 172.23052979 C83.89205861 160.51777506 83.83206379 148.80507707 83.79275131 137.09210587 C83.77186102 131.07007432 83.74351658 125.0482687 83.69824219 119.02636719 C83.6548366 113.21679203 83.63087376 107.40743442 83.62049103 101.59770966 C83.6130902 99.37927576 83.59863843 97.160854 83.57707977 94.94251251 C83.54811666 91.83934129 83.5440411 88.73707332 83.54589844 85.63378906 C83.53151733 84.71309631 83.51713623 83.79240356 83.50231934 82.84381104 C83.50781799 81.99689697 83.51331665 81.14998291 83.51898193 80.27740479 C83.51529476 79.54365757 83.51160759 78.80991035 83.50780869 78.05392838 C84.2725407 74.8626799 85.27483527 73.85881454 88 72 C91.28699089 71.40381889 94.53630703 71.4607807 97.86914062 71.49206543 C98.88245705 71.48582547 99.89577347 71.4795855 100.93979645 71.47315645 C104.34551554 71.45716319 107.75052521 71.46985587 111.15625 71.48242188 C113.59367288 71.47700359 116.03109249 71.4698826 118.46850586 71.46118164 C124.40769244 71.44480942 130.34669383 71.44724198 136.28587532 71.4588322 C141.11223129 71.4678613 145.93853059 71.46909281 150.76489258 71.46473694 C151.45148531 71.46412401 152.13807805 71.46351107 152.84547663 71.46287957 C154.24022358 71.46160068 155.63497052 71.46030383 157.02971745 71.4589892 C170.11202869 71.44757968 183.19422786 71.46070289 196.27652073 71.48219067 C207.50471578 71.50006203 218.73274543 71.49695802 229.9609375 71.47851562 C242.99603754 71.45711543 256.03103933 71.44867835 269.06615448 71.46096468 C270.45580545 71.46223889 271.84545643 71.46349638 273.23510742 71.46473694 C273.91886397 71.46535404 274.60262052 71.46597114 275.30709696 71.46660694 C280.12833926 71.47006241 284.9495193 71.46422729 289.77075195 71.45481873 C296.25831861 71.44243678 302.74564602 71.45123686 309.23318481 71.47439575 C311.61808756 71.47969728 314.00301653 71.47814456 316.38790894 71.46934509 C319.63591827 71.45846343 322.88291509 71.47206472 326.13085938 71.49206543 C327.08143471 71.48314254 328.03201004 71.47421966 329.01139069 71.46502638 C332.86403884 71.51125122 335.26924244 71.54636573 338.58507538 73.60474396 C340.48929825 76.82830886 340.50334697 79.09039099 340.50793457 82.83203125 C340.51729451 83.8619796 340.51729451 83.8619796 340.52684355 84.91273499 C340.54279568 87.21300621 340.53016168 89.51222097 340.51757812 91.8125 C340.5229983 93.46175759 340.53012037 95.11101034 340.53881836 96.76025391 C340.55706725 101.23960216 340.5499778 105.71858225 340.53730202 110.19793701 C340.52718243 114.88327026 340.5365648 119.56857177 340.54284668 124.25390625 C340.55012613 132.12245347 340.5405276 139.99085057 340.52148438 147.859375 C340.49971504 156.95945771 340.5067662 166.05918196 340.52879 175.15925598 C340.54693554 182.96913219 340.54950647 190.77890042 340.53903532 198.58879089 C340.53279573 203.25472897 340.53197752 207.9204985 340.54518127 212.58642578 C340.55672689 216.97288817 340.54873787 221.35888794 340.52560425 225.74530029 C340.52031022 227.35617301 340.5218428 228.96708458 340.53065491 230.57794189 C340.5415674 232.77514501 340.5279014 234.97086074 340.50793457 237.16796875 C340.50567242 239.01297974 340.50567242 239.01297974 340.50336456 240.89526367 C340 244 340 244 338.34948349 246.39456558 C335.34217926 248.44949797 333.53111241 248.5066742 329.90032959 248.51898193 C328.64953613 248.53289474 327.39874268 248.54680756 326.11004639 248.56114197 C324.72668327 248.55642903 323.3433214 248.55133509 321.95996094 248.54589844 C320.50125017 248.55463375 319.04254899 248.56511939 317.5838623 248.57722473 C313.62547164 248.60511098 309.66739321 248.60848885 305.70891857 248.60750484 C301.57151973 248.61063172 297.43426198 248.63624518 293.29693604 248.65948486 C285.46305916 248.7000658 277.62926557 248.72039046 269.79529977 248.73345876 C260.87631766 248.74932174 251.95747743 248.78773437 243.03857756 248.82805204 C224.69242988 248.91047961 206.34629557 248.96455384 188 249 C189.71970963 250.57731571 191.44147008 252.15239561 193.1640625 253.7265625 C194.1226416 254.60393066 195.0812207 255.48129883 196.06884766 256.38525391 C198.77777146 258.80176015 201.54129851 261.1071512 204.375 263.375 C208.57819387 266.7638999 212.56160738 270.31279665 216.5 274 C226.96446504 285.2984627 226.96446504 285.2984627 239.95869446 290.95698547 C240.64432968 290.81947372 241.3299649 290.68196198 242.03637695 290.5402832 C243.21722115 290.31421135 243.21722115 290.31421135 244.42192078 290.08357239 C245.26881973 289.90775131 246.11571869 289.73193024 246.98828125 289.55078125 C248.31778557 289.29194405 248.31778557 289.29194405 249.67414856 289.02787781 C251.57118387 288.65793383 253.46715401 288.28249339 255.36212158 287.90209961 C260.29079916 286.91715939 265.22986207 285.98707611 270.16796875 285.05078125 C271.13017334 284.86742218 272.09237793 284.68406311 273.08374023 284.49514771 C289.20332424 281.42896805 304.77858786 279.74475653 321.1875 279.625 C321.88868958 279.61678223 322.58987915 279.60856445 323.31231689 279.60009766 C335.15251206 279.49690601 345.76333098 280.90838263 356.375 286.375 C357.49648438 286.93960937 358.61796875 287.50421875 359.7734375 288.0859375 C369.85673551 294.06755497 376.34372552 303.63229446 379.5365448 314.89219666 C380.29222561 318.3290478 380.20492556 321.81214909 380.23828125 325.31640625 C380.246353 326.12810776 380.25442474 326.93980927 380.26274109 327.77610779 C380.27655489 329.49500411 380.28728911 331.21392755 380.29516602 332.93286133 C380.30663994 334.67350422 380.32701841 336.41411321 380.35668945 338.15454102 C380.5265155 348.12684024 380.58945209 356.87318829 376 366 C375.27876953 367.49273437 375.27876953 367.49273437 374.54296875 369.015625 C367.83412936 380.07457639 359.0981296 387.31620527 346.70550919 391.35826874 C341.51372205 392.58973087 336.28060106 392.37670448 330.97216797 392.32128906 C329.01120203 392.31967368 327.05023606 392.31806669 325.08926988 392.31677675 C322.99829409 392.3127354 320.90746223 392.30149833 318.81652451 392.28842926 C314.44517032 392.26236318 310.07407964 392.26360179 305.70266724 392.26971436 C293.27838354 392.28326543 280.85434211 392.26557613 268.43017578 392.20947266 C261.55496426 392.17866235 254.68018844 392.17293818 247.80493653 392.19435859 C243.46343073 392.20644635 239.12351865 392.18771462 234.78221488 392.14587355 C231.44430953 392.12282161 228.1069857 392.14552595 224.76904297 392.16113281 C223.57405182 392.14060349 222.37906067 392.12007416 221.14785767 392.09892273 C215.50140283 392.16879087 211.95122646 392.34140974 207.82058716 396.42230225 C206.85122 397.59127991 205.9060913 398.78132038 205 400 C204.37351562 400.68707031 203.74703125 401.37414062 203.1015625 402.08203125 C202.61429687 402.65308594 202.12703125 403.22414063 201.625 403.8125 C198.95323458 406.90959131 196.24219622 409.964993 193.5 413 C186.41477842 420.8164057 186.41477842 420.8164057 179.6875 428.9375 C178 431 178 431 176 432 C174.47955064 432.10991241 172.9544871 432.15905711 171.43017578 432.17700195 C170.48224152 432.18983719 169.53430725 432.20267242 168.55764771 432.21589661 C167.53057709 432.22328354 166.50350647 432.23067047 165.4453125 432.23828125 C164.39221893 432.246353 163.33912537 432.25442474 162.25411987 432.26274109 C160.02310842 432.27658695 157.79207573 432.28730685 155.56103516 432.29516602 C152.14575222 432.31239531 148.73143299 432.35627966 145.31640625 432.40039062 C143.1510488 432.41051586 140.98568311 432.41903249 138.8203125 432.42578125 C137.79729034 432.44328934 136.77426819 432.46079742 135.72024536 432.47883606 C131.75536951 432.46668028 128.86689259 432.45400751 125.32373047 430.59838867 C120.0839641 420.31310032 128.32490906 399.25872739 130 392 C109.54 392 89.08 392 68 392 C68.04640625 398.01734375 68.0928125 404.0346875 68.140625 410.234375 C68.16106085 414.04428806 68.18031639 417.85413364 68.1953125 421.6640625 C68.21923303 427.71270769 68.24754439 433.7611109 68.30175781 439.80957031 C68.34518839 444.68547468 68.3691314 449.5611196 68.37950897 454.43720245 C68.38690535 456.29838394 68.40134866 458.15955108 68.42292023 460.02062225 C68.45191744 462.62571504 68.45595759 465.22973298 68.45410156 467.83496094 C68.46848267 468.60604187 68.48286377 469.3771228 68.49768066 470.17156982 C68.47213691 473.48046862 68.36093466 475.52757289 66.32101059 478.19762802 C63.44748511 480.42905335 61.9916077 480.50245944 58.3828125 480.50793457 C57.23876953 480.51921387 56.09472656 480.53049316 54.91601562 480.54211426 C53.66498047 480.53401733 52.41394531 480.52592041 51.125 480.51757812 C49.79100785 480.52299968 48.4570217 480.53012254 47.12304688 480.53881836 C43.50314652 480.55705113 39.88370226 480.54998474 36.26379395 480.53730202 C32.4753293 480.52717395 28.68690368 480.53656715 24.8984375 480.54284668 C18.53638702 480.55012368 12.17452228 480.54053413 5.8125 480.52148438 C-1.54260137 480.49971536 -8.89725923 480.50676671 -16.25234985 480.52879 C-22.56755367 480.54694262 -28.88262398 480.54950305 -35.19784546 480.53903532 C-38.96953603 480.53279956 -42.74101814 480.53196682 -46.51269531 480.54518127 C-50.05872353 480.55673735 -53.60418003 480.54871944 -57.15014648 480.52560425 C-59.07209487 480.51779314 -60.99409162 480.52967522 -62.91601562 480.54211426 C-64.06005859 480.53083496 -65.20410156 480.51955566 -66.3828125 480.50793457 C-67.37684082 480.50642647 -68.37086914 480.50491837 -69.39501953 480.50336456 C-72.79623518 479.8461422 -73.96643406 478.7766861 -76 476 C-76.49219131 473.57125473 -76.49219131 473.57125473 -76.48101807 470.8114624 C-76.48651672 469.76260864 -76.49201538 468.71375488 -76.49768066 467.63311768 C-76.48329956 466.4880072 -76.46891846 465.34289673 -76.45410156 464.16308594 C-76.45468567 462.95305908 -76.45526978 461.74303223 -76.45587158 460.49633789 C-76.45356302 457.18223933 -76.43351078 453.86913871 -76.40557575 450.55521679 C-76.38056223 447.09057241 -76.37822016 443.62591459 -76.37347412 440.16119385 C-76.36104412 433.60216181 -76.32822245 427.04339661 -76.28807616 420.48448205 C-76.24335899 413.01661264 -76.22137159 405.54873045 -76.20129442 398.08076048 C-76.15948963 382.72035247 -76.08913741 367.36021065 -76 352 C-76.82725586 352.02094727 -77.65451172 352.04189453 -78.50683594 352.06347656 C-82.2544337 352.14661619 -86.00183749 352.19865531 -89.75 352.25 C-91.70292969 352.30027344 -91.70292969 352.30027344 -93.6953125 352.3515625 C-94.94570312 352.36445313 -96.19609375 352.37734375 -97.484375 352.390625 C-98.63647461 352.41157227 -99.78857422 352.43251953 -100.97558594 352.45410156 C-104 352 -104 352 -106.37548065 350.40258789 C-108.55530665 347.17872753 -108.5031757 345.04930399 -108.50793457 341.16796875 C-108.51417453 340.48133652 -108.5204145 339.79470428 -108.52684355 339.08726501 C-108.54279568 336.78699379 -108.53016168 334.48777903 -108.51757812 332.1875 C-108.5229983 330.53824241 -108.53012037 328.88898966 -108.53881836 327.23974609 C-108.55706725 322.76039784 -108.5499778 318.28141775 -108.53730202 313.80206299 C-108.52718243 309.11672974 -108.5365648 304.43142823 -108.54284668 299.74609375 C-108.55012613 291.87754653 -108.5405276 284.00914943 -108.52148438 276.140625 C-108.49971504 267.04054229 -108.5067662 257.94081804 -108.52879 248.84074402 C-108.54693554 241.03086781 -108.54950647 233.22109958 -108.53903532 225.41120911 C-108.53279573 220.74527103 -108.53197752 216.0795015 -108.54518127 211.41357422 C-108.55672689 207.02711183 -108.54873787 202.64111206 -108.52560425 198.25469971 C-108.52031022 196.64382699 -108.5218428 195.03291542 -108.53065491 193.42205811 C-108.5415674 191.22485499 -108.5279014 189.02913926 -108.50793457 186.83203125 C-108.50642647 185.60202393 -108.50491837 184.3720166 -108.50336456 183.10473633 C-107.90322721 179.40310855 -106.98009029 178.21216312 -104 176 C-100.97558594 175.54589844 -100.97558594 175.54589844 -97.484375 175.609375 C-95.60878906 175.62871094 -95.60878906 175.62871094 -93.6953125 175.6484375 C-91.74238281 175.69871094 -91.74238281 175.69871094 -89.75 175.75 C-88.43257812 175.76804688 -87.11515625 175.78609375 -85.7578125 175.8046875 C-82.50447692 175.85183729 -79.25260375 175.91763956 -76 176 C-76.15186768 174.8975293 -76.30373535 173.79505859 -76.46020508 172.65917969 C-80.58422875 139.61958257 -71.76006396 119.94072463 -51.6476593 93.92448425 C-50.55010204 92.52447375 -49.44868111 91.12747335 -48.34146118 89.73509216 C-45.63345629 86.42708803 -45.63345629 86.42708803 -45.14135742 82.32836914 C-45.29451416 81.24160889 -45.4476709 80.15484863 -45.60546875 79.03515625 C-48.12274308 50.63373506 -33.01113941 32.03084635 -16.5579834 10.10321045 C-15.06688799 8.09029591 -13.63018408 6.04728655 -12.20019531 3.99072266 C-9.01552927 -0.3381898 -5.24218626 -1.26568101 0 0 Z M100 248 C100 269.12 100 290.24 100 312 C108.0128125 311.5359375 108.0128125 311.5359375 116.1875 311.0625 C117.86481201 310.96718994 119.54212402 310.87187988 121.27026367 310.77368164 C122.61118181 310.69445095 123.95208459 310.61495979 125.29296875 310.53515625 C126.32339294 310.47805481 126.32339294 310.47805481 127.37463379 310.4197998 C130.9961459 310.20076992 134.46319907 309.81756702 138 309 C137.3518015 301.93893937 136.07477691 295.17023569 134.53125 288.25390625 C134.17069519 286.61541969 134.17069519 286.61541969 133.80285645 284.9438324 C133.29739725 282.65159629 132.78967066 280.3598591 132.27978516 278.06860352 C131.49726816 274.55021698 130.72270815 271.03014663 129.94921875 267.50976562 C129.45619453 265.27854295 128.96272098 263.04741951 128.46875 260.81640625 C128.23643677 259.76127335 128.00412354 258.70614044 127.76477051 257.61903381 C127.54784546 256.6471965 127.33092041 255.67535919 127.10742188 254.67407227 C126.82215637 253.38908592 126.82215637 253.38908592 126.53112793 252.07814026 C126.06759213 249.95867679 126.06759213 249.95867679 125 248 C116.75 248 108.5 248 100 248 Z " fill="#000000" transform="translate(124,16)"/>
<path d="M0 0 C16.16687293 -1.6731179 26.99827641 -0.85491212 39.8515625 9.48828125 C41.23477719 10.65837889 42.61761824 11.82891843 44 13 C46.18868216 14.71456709 48.40779988 16.38454484 50.625 18.0625 C51.64335937 18.86042969 52.66171875 19.65835938 53.7109375 20.48046875 C58.16277793 23.93221841 62.77672874 27.15714663 67.40258789 30.37011719 C71.18671007 32.99922062 74.91531783 35.67364692 78.58203125 38.46484375 C79.33258789 39.02510254 80.08314453 39.58536133 80.85644531 40.16259766 C82.28969574 41.23452178 83.71056418 42.32327812 85.11621094 43.43115234 C88.58589506 45.99365686 90.97471838 47.40189275 95.37109375 47.07421875 C98.99447829 46.42126384 98.99447829 46.42126384 100.20687866 44.20220947 C101.03877667 41.89233129 101.27460874 40.13831658 101.31884766 37.69042969 C101.33871735 36.84986023 101.35858704 36.00929077 101.37905884 35.14324951 C101.39061005 34.24519592 101.40216125 33.34714233 101.4140625 32.421875 C101.43342865 31.4953009 101.4527948 30.56872681 101.4727478 29.61407471 C101.53244767 26.65947629 101.57889068 23.70483871 101.625 20.75 C101.6631886 18.74477483 101.70224085 16.73956591 101.7421875 14.734375 C101.8381414 9.82304889 101.92220803 4.911646 102 0 C107.28 0 112.56 0 118 0 C118.029729 1.87703613 118.029729 1.87703613 118.06005859 3.79199219 C118.13615293 8.436402 118.22486463 13.08050008 118.31738281 17.72460938 C118.35565669 19.73431238 118.39051236 21.74408351 118.421875 23.75390625 C118.46755991 26.6434768 118.52554887 29.53257896 118.5859375 32.421875 C118.59748871 33.31992859 118.60903992 34.21798218 118.62094116 35.14324951 C118.64081085 35.98381897 118.66068054 36.82438843 118.68115234 37.69042969 C118.69447601 38.42767273 118.70779968 39.16491577 118.7215271 39.92449951 C119.04800749 42.35780704 119.65075533 43.94842744 121 46 C125.22347418 47.32501151 127.24096307 47.38412427 131.21875 45.37109375 C135.41598494 42.83395505 139.36196583 39.96351009 143.3125 37.0625 C144.91269237 35.89704198 146.51295475 34.73168008 148.11328125 33.56640625 C148.92490723 32.97359863 149.7365332 32.38079102 150.57275391 31.77001953 C154.37189981 28.99957014 158.1862333 26.25026822 162 23.5 C166.64347335 20.14845048 171.28502636 16.79430418 175.921875 13.43359375 C176.73011719 12.84835938 177.53835938 12.263125 178.37109375 11.66015625 C179.91081772 10.54518372 181.44992175 9.42935437 182.98828125 8.3125 C184.37123272 7.31157932 185.76079907 6.3197164 187.15771484 5.33837891 C189.19776614 3.89712243 189.19776614 3.89712243 191.7109375 1.64453125 C196.93657427 -0.96828714 202.12798867 -0.41864819 207.875 -0.25 C209.0403125 -0.23195313 210.205625 -0.21390625 211.40625 -0.1953125 C214.27168249 -0.1483382 217.13541168 -0.08266293 220 0 C216.0050644 4.26909785 211.6447465 7.57411778 206.875 10.9375 C205.25590788 12.09290613 203.63743821 13.2491849 202.01953125 14.40625 C201.1888916 14.99921875 200.35825195 15.5921875 199.50244141 16.203125 C195.49656944 19.07953648 191.52870352 22.00674683 187.5625 24.9375 C186.78471191 25.51161621 186.00692383 26.08573242 185.20556641 26.67724609 C183.61810512 27.84930916 182.0308669 29.0216744 180.44384766 30.19433594 C176.21428751 33.31939357 171.98236339 36.44124051 167.75 39.5625 C166.97599854 40.13411865 166.20199707 40.7057373 165.40454102 41.29467773 C164.66776123 41.83809814 163.93098145 42.38151855 163.171875 42.94140625 C162.12084595 43.72004028 162.12084595 43.72004028 161.04858398 44.5144043 C159.695443 45.49567744 158.32503878 46.45362316 156.93774414 47.38598633 C152.83726415 50.08678949 152.83726415 50.08678949 150.9375 54.5625 C150.99669815 57.81839843 151.10353543 59.40483796 153 62 C155.82261007 63.41130503 158.22081484 63.16394327 161.37744141 63.20532227 C162.03122269 63.21522186 162.68500397 63.22512146 163.3585968 63.23532104 C165.52288167 63.26694711 167.6871885 63.29169772 169.8515625 63.31640625 C171.35086645 63.33697483 172.85016459 63.35797128 174.34945679 63.37937927 C178.29825131 63.43460988 182.24709826 63.48401476 186.19598389 63.53222656 C190.22445346 63.58243439 194.25284678 63.6381242 198.28125 63.69335938 C206.18743732 63.80095306 214.09368931 63.90188881 222 64 C222 69.28 222 74.56 222 80 C219.99131836 80.0093457 217.98263672 80.01869141 215.91308594 80.02832031 C209.27523843 80.06209265 202.63770175 80.11764267 196.000103 80.18390274 C191.97580081 80.22340667 187.95171837 80.25558057 183.92724609 80.27099609 C180.04310759 80.2861439 176.15957312 80.32055486 172.27570343 80.36830902 C170.79420472 80.38314242 169.31261978 80.39104214 167.83104706 80.39188385 C165.75487429 80.3942496 163.68037623 80.42129206 161.60449219 80.45410156 C160.42312683 80.46298401 159.24176147 80.47186646 158.02459717 80.48101807 C154.37225107 81.10771364 153.16266095 82.02752375 151 85 C150.7494108 88.46236631 150.6845255 89.93444209 152 93 C154.47924596 95.72602805 157.37956788 97.65522449 160.4375 99.6875 C161.29279297 100.285625 162.14808594 100.88375 163.02929688 101.5 C164.80719653 102.74282904 166.59164714 103.97633609 168.38232422 105.20068359 C172.30572098 107.89751572 176.1496115 110.70045831 180 113.5 C181.48153034 114.56804201 182.96330323 115.63574765 184.4453125 116.703125 C191.62167432 121.88657278 198.74303102 127.14487387 205.85693359 132.41357422 C207.85712247 133.89423351 209.86007443 135.37108458 211.86328125 136.84765625 C212.97160191 137.6689366 214.07969433 138.49052511 215.1875 139.3125 C216.12980469 140.00988281 217.07210937 140.70726562 218.04296875 141.42578125 C218.68878906 141.94527344 219.33460938 142.46476563 220 143 C220 143.33 220 143.66 220 144 C206.38755566 145.28001285 195.06110664 146.07993365 184.04980469 137.18701172 C182.70778095 136.05404531 181.37671533 134.90797767 180.05664062 133.74951172 C176.48813921 130.71391329 172.63590001 128.0765689 168.8125 125.375 C167.29809905 124.28185734 165.78505014 123.18683888 164.2734375 122.08984375 C159.95246315 118.96315207 155.6271552 115.84249143 151.2746582 112.75976562 C148.01041323 110.44769065 144.77836004 108.09919444 141.56640625 105.71484375 C140.04434187 104.60146538 138.52220742 103.4881828 137 102.375 C136.29351318 101.84124756 135.58702637 101.30749512 134.85913086 100.75756836 C131.73421514 98.49151054 129.59332319 97.10696933 125.75 96.4140625 C122.13247575 97.18484181 121.17918062 97.99236583 119 101 C118.37928463 104.25865745 118.39504567 107.486953 118.390625 110.796875 C118.37408875 111.74564514 118.35755249 112.69441528 118.34051514 113.67193604 C118.29198561 116.69802288 118.27065305 119.72360701 118.25 122.75 C118.22184449 124.80341078 118.19191765 126.85679808 118.16015625 128.91015625 C118.08622516 133.94006279 118.03668067 138.96968944 118 144 C112.72 144 107.44 144 102 144 C101.9906543 142.71834961 101.98130859 141.43669922 101.97167969 140.11621094 C101.93179939 135.35983558 101.86604585 130.60410838 101.79248047 125.84814453 C101.76425951 123.78996102 101.74305059 121.7316689 101.72900391 119.67333984 C101.7075901 116.71395215 101.66094779 113.7558718 101.609375 110.796875 C101.60814636 109.87694763 101.60691772 108.95702026 101.60565186 108.00921631 C101.52259712 102.86603527 101.52259712 102.86603527 99.13476562 98.42358398 C96.09155925 96.39419968 94.61000092 96.35909404 91 97 C88.20843665 98.45769751 85.75854174 100.29198187 83.25 102.1875 C82.51193115 102.72705322 81.7738623 103.26660645 81.01342773 103.82250977 C79.45324574 104.96396584 77.89724597 106.11115758 76.34521484 107.26367188 C73.34807867 109.48266339 70.32111662 111.65853758 67.29248047 113.83422852 C65.04408222 115.45074169 62.80070124 117.07399381 60.55859375 118.69921875 C57.47128979 120.93636661 54.38001388 123.1678448 51.28515625 125.39453125 C50.51292725 125.95188965 49.74069824 126.50924805 48.94506836 127.08349609 C47.40579504 128.18915533 45.86105022 129.28723908 44.31079102 130.37744141 C41.03979026 132.69497948 37.93120541 134.9525377 35.1171875 137.81640625 C27.94463635 144.6570931 21.93877892 144.67342536 12.25 144.5625 C8.16067081 144.44679032 4.08228103 144.26546625 0 144 C3.99491684 139.7309222 8.35519259 136.4257727 13.125 133.0625 C14.74281543 131.90843183 16.35998204 130.75345368 17.9765625 129.59765625 C18.80704102 129.00484863 19.63751953 128.41204102 20.49316406 127.80126953 C24.52342626 124.90535265 28.51124682 121.95269197 32.5 119 C39.5853053 113.76220907 46.70640657 108.57708684 53.86328125 103.4375 C55.91280081 101.96368818 57.95774157 100.48385516 60 99 C61.11882568 98.18982422 61.11882568 98.18982422 62.26025391 97.36328125 C62.98519043 96.83089844 63.71012695 96.29851562 64.45703125 95.75 C65.11292236 95.27046875 65.76881348 94.7909375 66.44458008 94.296875 C68.13529109 93.06323317 68.13529109 93.06323317 69 91 C69.25860135 86.94857881 69.30441554 85.45662331 67 82 C63.66950968 80.88983656 61.11054334 80.84147391 57.60083008 80.79467773 C56.63456947 80.77982834 56.63456947 80.77982834 55.64878845 80.76467896 C53.5224066 80.73312533 51.39600242 80.70833095 49.26953125 80.68359375 C47.79407678 80.66301891 46.31862814 80.6420223 44.84318542 80.62062073 C40.96180949 80.56545474 37.08038085 80.51602138 33.19891357 80.46777344 C29.23737909 80.41751842 25.27592106 80.36185324 21.31445312 80.30664062 C13.54303171 80.19912599 5.77154615 80.09816623 -2 80 C-2 74.72 -2 69.44 -2 64 C-0.02161133 63.98018066 1.95677734 63.96036133 3.99511719 63.93994141 C10.53310298 63.87215923 17.07093478 63.795383 23.60874557 63.71247292 C27.57246147 63.66253574 31.53615105 63.61620556 35.5 63.578125 C39.3256299 63.54123948 43.15103826 63.49487082 46.97647858 63.44193649 C48.43566246 63.42340987 49.8948938 63.40829549 51.35414886 63.39665604 C53.39876471 63.37976362 55.4428751 63.35072247 57.48730469 63.31884766 C58.65090515 63.30552399 59.81450562 63.29220032 61.0133667 63.2784729 C63.91222667 63.00818396 65.59637241 62.60450095 68 61 C69.44430855 58.11138291 69.37688506 56.20352299 69 53 C65.04253006 48.41807721 60.19511271 45.03623127 55.3125 41.5 C54.47525391 40.88833984 53.63800781 40.27667969 52.77539062 39.64648438 C46.46627464 35.04381599 40.1319944 30.47560319 33.79467773 25.91186523 C28.12997725 21.82887895 22.49587514 17.70558637 16.875 13.5625 C16.10542969 12.9953125 15.33585937 12.428125 14.54296875 11.84375 C13.07789908 10.76220642 11.61398463 9.6790958 10.15136719 8.59423828 C8.66038929 7.48937154 7.1660058 6.38909139 5.66894531 5.29248047 C4.93514648 4.75123535 4.20134766 4.20999023 3.4453125 3.65234375 C2.78289551 3.16628662 2.12047852 2.68022949 1.43798828 2.17944336 C0.96345215 1.79022705 0.48891602 1.40101074 0 1 C0 0.67 0 0.34 0 0 Z " fill="#EB6E6C" transform="translate(226,104)"/>
<path d="M0 0 C1.05123047 -0.020625 2.10246094 -0.04125 3.18554688 -0.0625 C14.61025075 -0.11867556 27.07125154 1.78443215 35.57421875 10.09375 C39.6875 14.77272727 39.6875 14.77272727 39.6875 16.25 C39.00733826 16.25364563 38.32717651 16.25729126 37.62640381 16.26104736 C30.55348419 16.30282558 23.48121632 16.37213871 16.40869141 16.45751953 C13.7684582 16.48576253 11.12813992 16.50696038 8.48779297 16.52099609 C4.6945428 16.54237856 0.90231921 16.58900791 -2.890625 16.640625 C-4.66424408 16.64246796 -4.66424408 16.64246796 -6.47369385 16.64434814 C-7.57453308 16.66406677 -8.67537231 16.6837854 -9.80957031 16.70410156 C-10.77775696 16.71298401 -11.7459436 16.72186646 -12.74346924 16.73101807 C-16.05229094 17.39944863 -17.25348334 18.62224934 -19.3125 21.25 C-19.97916667 24.25 -19.97916667 24.25 -19.3125 27.25 C-17.20562311 29.97590574 -16.0120536 31.11656712 -12.59161377 31.76898193 C-11.55236755 31.77786438 -10.51312134 31.78674683 -9.44238281 31.79589844 C-8.26146057 31.81561707 -7.08053833 31.83533569 -5.86383057 31.85565186 C-3.95896881 31.85749481 -3.95896881 31.85749481 -2.015625 31.859375 C-0.05976471 31.88417938 -0.05976471 31.88417938 1.93560791 31.90948486 C5.39451979 31.95312939 8.85317822 31.97315054 12.31231689 31.98822021 C15.84508229 32.00780216 19.37757438 32.04977078 22.91015625 32.08984375 C29.83586151 32.16511406 36.76148375 32.21335441 43.6875 32.25 C43.6875 37.53 43.6875 42.81 43.6875 48.25 C-65.2125 48.25 -174.1125 48.25 -286.3125 48.25 C-288.5625 35.875 -288.5625 35.875 -289.1640625 29.83203125 C-289.29296875 28.55908203 -289.421875 27.28613281 -289.5546875 25.97460938 C-289.68101562 24.68361328 -289.80734375 23.39261719 -289.9375 22.0625 C-290.0725129 20.71545426 -290.20792715 19.36844869 -290.34375 18.02148438 C-290.67059427 14.76471469 -290.99209903 11.50740988 -291.3125 8.25 C-283.0625 8.25 -274.8125 8.25 -266.3125 8.25 C-264.6625 11.55 -263.0125 14.85 -261.3125 18.25 C-255.73211223 25.0369581 -247.85274991 29.40058411 -239.3125 31.25 C-233.85118881 31.74724431 -228.41550727 31.78304724 -222.9375 31.75 C-221.73767487 31.74685791 -221.73767487 31.74685791 -220.51361084 31.74365234 C-171.23796795 31.48241633 -121.96862314 20.51547321 -73.90722656 10.54345703 C-61.24909535 7.92446698 -48.57335236 5.55855411 -35.8125 3.5 C-35.15060669 3.3929071 -34.48871338 3.28581421 -33.8067627 3.17547607 C-22.44032072 1.34544271 -11.51881509 0.05588267 0 0 Z " fill="#E7ECF0" transform="translate(444.3125,311.75)"/>
<path d="M0 0 C10.82619379 6.97456715 18.79391462 17.07268989 22.25 29.625 C24.54633438 43.84661632 22.69915469 55.76416535 15 68.125 C7.26383602 78.78414785 -3.56332975 86.88209588 -16.85546875 89.1015625 C-31.12190344 90.39199378 -43.32478237 88.23565632 -54.7578125 79.3046875 C-64.81588177 70.68777443 -71.09600046 60.5323556 -73.1875 47.3125 C-74.23645722 32.42074672 -70.73988774 20.62303468 -61.2578125 8.93359375 C-44.76955833 -8.91358246 -20.69411649 -11.39445985 0 0 Z " fill="#CED0D2" transform="translate(145.1875,214.6875)"/>
<path d="M0 0 C36.96 0 73.92 0 112 0 C112 10.56 112 21.12 112 32 C106.72 32 101.44 32 96 32 C95.9175 30.2675 95.835 28.535 95.75 26.75 C95.41798001 23.21603378 95.21761713 21.34657543 93.3125 18.3125 C90.24237189 16.56999486 88.47787674 16.42035388 85 17 C82.4631891 18.1982517 82.4631891 18.1982517 81 21 C80.3672102 24.69570513 80.17908282 28.23926074 80 32 C74.72 32 69.44 32 64 32 C63.9175 30.2675 63.835 28.535 63.75 26.75 C63.41798001 23.21603378 63.21761713 21.34657543 61.3125 18.3125 C58.24237189 16.56999486 56.47787674 16.42035388 53 17 C50.4631891 18.1982517 50.4631891 18.1982517 49 21 C48.3672102 24.69570513 48.17908282 28.23926074 48 32 C42.72 32 37.44 32 32 32 C31.87625 29.40125 31.87625 29.40125 31.75 26.75 C31.41798001 23.21603378 31.21761713 21.34657543 29.3125 18.3125 C26.24237189 16.56999486 24.47787674 16.42035388 21 17 C18.4631891 18.1982517 18.4631891 18.1982517 17 21 C16.3672102 24.69570513 16.17908282 28.23926074 16 32 C10.72 32 5.44 32 0 32 C0 21.44 0 10.88 0 0 Z " fill="#DFB898" transform="translate(64,160)"/>
<path d="M0 0 C34.65 0 69.3 0 105 0 C106.32 10.56 107.64 21.12 109 32 C104.71 32 100.42 32 96 32 C95.9175 30.2675 95.835 28.535 95.75 26.75 C95.41798001 23.21603378 95.21761713 21.34657543 93.3125 18.3125 C90.24237189 16.56999486 88.47787674 16.42035388 85 17 C82.4631891 18.1982517 82.4631891 18.1982517 81 21 C80.3672102 24.69570513 80.17908282 28.23926074 80 32 C74.72 32 69.44 32 64 32 C63.9175 30.2675 63.835 28.535 63.75 26.75 C63.41798001 23.21603378 63.21761713 21.34657543 61.3125 18.3125 C58.24237189 16.56999486 56.47787674 16.42035388 53 17 C50.4631891 18.1982517 50.4631891 18.1982517 49 21 C48.3672102 24.69570513 48.17908282 28.23926074 48 32 C42.72 32 37.44 32 32 32 C31.87625 29.40125 31.87625 29.40125 31.75 26.75 C31.41798001 23.21603378 31.21761713 21.34657543 29.3125 18.3125 C26.24237189 16.56999486 24.47787674 16.42035388 21 17 C18.4631891 18.1982517 18.4631891 18.1982517 17 21 C16.3672102 24.69570513 16.17908282 28.23926074 16 32 C10.72 32 5.44 32 0 32 C0 21.44 0 10.88 0 0 Z " fill="#DFB898" transform="translate(32,320)"/>
<path d="M0 0 C21.12 0 42.24 0 64 0 C60.2338136 5.02158187 57.15128911 8.99051734 52.77734375 13.23046875 C50.34460863 15.65251053 48.1242147 18.23381391 45.8828125 20.83203125 C43.7842468 23.24842951 41.645603 25.62529024 39.5 28 C36.23977745 31.61267904 33.01856435 35.25488991 29.82421875 38.92578125 C26.95736798 42.18551949 24.03411516 45.39410784 21.11328125 48.60546875 C18.94767955 50.94935311 18.94767955 50.94935311 17.26147461 53.61914062 C15 56 15 56 12.06738281 56.56762695 C10.95717773 56.54144287 9.84697266 56.51525879 8.703125 56.48828125 C7.49785156 56.47216797 6.29257812 56.45605469 5.05078125 56.43945312 C3.79652344 56.39755859 2.54226563 56.35566406 1.25 56.3125 C-0.65458984 56.27866211 -0.65458984 56.27866211 -2.59765625 56.24414062 C-5.73295773 56.18520639 -8.86588595 56.10297079 -12 56 C-8.41781544 37.24066506 -4.17218393 18.63575488 0 0 Z " fill="#CED0D2" transform="translate(278,376)"/>
<path d="M0 0 C1.25707764 0.0028299 2.51415527 0.00565979 3.80932617 0.00857544 C26.66066767 0.23999859 26.66066767 0.23999859 35.03172302 8.22036743 C40.50642763 14.42654169 49.4375 26.52078846 49.4375 35.25 C17.0975 35.25 -15.2425 35.25 -48.5625 35.25 C-46.2525 31.62 -43.9425 27.99 -41.5625 24.25 C-40.64605713 22.41727539 -39.72961426 20.58455078 -38.78540039 18.69628906 C-29.66939642 1.13735076 -18.89051933 -0.52934736 0 0 Z " fill="#7D8286" transform="translate(119.5625,108.75)"/>
<path d="M0 0 C17.86611485 -2.10295316 17.86611485 -2.10295316 24.05859375 2.578125 C27.08567476 5.29875468 29.79977168 8.29552065 32.484375 11.35058594 C34.63867117 13.69504872 37.05408965 15.60911148 39.5625 17.5625 C44.29906547 21.35314343 48.72181911 25.39628029 53.14453125 29.54125977 C57.49447665 33.59396757 62.00257566 37.36445105 66.66015625 41.0625 C68.92675771 42.93935196 71.02838583 44.8143769 73 47 C73 47.66 73 48.32 73 49 C37.07551456 56.11714259 37.07551456 56.11714259 25.5625 57.9375 C24.83893311 58.05327393 24.11536621 58.16904785 23.36987305 58.28833008 C19.8750025 58.81759619 16.5294009 59.03952929 13 59 C10.11373819 49.31203813 8.07896546 39.43634108 5.98339844 29.55541992 C5.37259693 26.67617218 4.75698575 23.79798414 4.140625 20.91992188 C3.74711615 19.07558048 3.35387741 17.23118144 2.9609375 15.38671875 C2.77864594 14.53349533 2.59635437 13.68027191 2.40853882 12.80119324 C1.50760251 8.54616843 0.67231388 4.29872102 0 0 Z " fill="#CED0D1" transform="translate(266,264)"/>
<path d="M0 0 C1.18149628 -0.00146027 2.36299255 -0.00292053 3.58029175 -0.00442505 C7.46160563 0.00250804 11.33803761 0.08011811 15.21850586 0.15869141 C17.91846526 0.18293577 20.61841993 0.19207595 23.31846619 0.2015686 C29.68324776 0.23254759 36.04629454 0.31446155 42.41031498 0.4150635 C49.66044187 0.52716428 56.91065534 0.58190048 64.16143429 0.63201785 C79.06553637 0.73631001 93.96801882 0.91199366 108.87084961 1.13525391 C104.50680364 8.96059562 104.50680364 8.96059562 101.18334961 11.38525391 C100.28036133 12.07361328 100.28036133 12.07361328 99.35913086 12.77587891 C91.90003639 16.85086301 84.86443958 17.56416122 76.47607422 17.47583008 C74.82087265 17.4764872 74.82087265 17.4764872 73.13223267 17.47715759 C69.51236815 17.4750802 65.89297622 17.45179823 62.27319336 17.42822266 C59.75257114 17.42262298 57.23194563 17.41835464 54.71131897 17.4153595 C48.7722855 17.40510502 42.83340175 17.38150017 36.894445 17.35131103 C30.12776242 17.317668 23.36107143 17.30125624 16.5943259 17.28622472 C2.68640804 17.25494738 -11.22136197 17.2022491 -25.12915039 17.13525391 C-23.868578 15.05256909 -22.55327384 13.10758234 -21.12915039 11.13525391 C-20.52092217 10.28217463 -19.91269396 9.42909534 -19.28603458 8.55016518 C-13.42260975 1.13099445 -9.28353106 -0.30367942 0 0 Z " fill="#3296E7" transform="translate(375.129150390625,374.86474609375)"/>
<path d="M0 0 C5.28 0 10.56 0 16 0 C16 36.96 16 73.92 16 112 C10.72 112 5.44 112 0 112 C0 75.04 0 38.08 0 0 Z " fill="#F5CAA7" transform="translate(96,368)"/>
<path d="M0 0 C5.28 0 10.56 0 16 0 C16 36.96 16 73.92 16 112 C10.72 112 5.44 112 0 112 C0 75.04 0 38.08 0 0 Z " fill="#F5CAA7" transform="translate(64,368)"/>
<path d="M0 0 C4.95 0 9.9 0 15 0 C15.8037467 3.21498681 16.12399757 5.36208823 16.12025452 8.58111572 C16.12162918 9.49534302 16.12300385 10.40957031 16.12442017 11.35150146 C16.12082489 12.34700012 16.11722961 13.34249878 16.11352539 14.36816406 C16.11367142 15.42213379 16.11381744 16.47610352 16.1139679 17.56201172 C16.1132711 21.0465704 16.10548953 24.53107566 16.09765625 28.015625 C16.09579124 30.43129446 16.09436773 32.8469643 16.09336853 35.26263428 C16.08954986 41.62155196 16.07972508 47.98044681 16.06866455 54.33935547 C16.05843649 60.82779634 16.05386791 67.31624089 16.04882812 73.8046875 C16.03810226 86.53646837 16.0210336 99.26823228 16 112 C10.72 112 5.44 112 0 112 C0 75.04 0 38.08 0 0 Z " fill="#F4C9A6" transform="translate(128,368)"/>
<path d="M0 0 C5.28 0 10.56 0 16 0 C16 31.68 16 63.36 16 96 C10.72 96 5.44 96 0 96 C0 64.32 0 32.64 0 0 Z " fill="#F5CAA7" transform="translate(192,208)"/>
<path d="M0 0 C5.28 0 10.56 0 16 0 C16 31.68 16 63.36 16 96 C10.72 96 5.44 96 0 96 C0 64.32 0 32.64 0 0 Z " fill="#F5CAA7" transform="translate(32,208)"/>
<path d="M0 0 C33.33 0 66.66 0 101 0 C99 12 99 12 98 16 C87.83788928 16.06965182 77.67583578 16.12288824 67.51353455 16.15543652 C62.79425598 16.17106169 58.0751413 16.19224224 53.35595703 16.22631836 C48.7977539 16.25902437 44.23970795 16.27687668 39.68139648 16.28463173 C37.94634529 16.29015511 36.21130225 16.30094082 34.47631836 16.31719017 C32.03741168 16.33911429 29.59914634 16.34196074 27.16015625 16.34057617 C26.45021011 16.351362 25.74026398 16.36214783 25.00880432 16.3732605 C18.07534405 16.33094455 11.90185207 14.38365559 6.6875 9.6875 C6.05199219 9.13449219 5.41648438 8.58148438 4.76171875 8.01171875 C3 6 3 6 0 0 Z " fill="#3296E7" transform="translate(161,376)"/>
<path d="M0 0 C6.435 2.97 6.435 2.97 13 6 C13.99 6.33 14.98 6.66 16 7 C16 31.09 16 55.18 16 80 C10.72 80 5.44 80 0 80 C0 53.6 0 27.2 0 0 Z " fill="#F4C9A6" transform="translate(160,400)"/>
<path d="M0 0 C3.05083439 0.6355905 4.81104305 1.40112173 6.97021484 3.66796875 C9.43246488 8.34729456 8.48513096 14.30372079 8.3125 19.4375 C8.28994141 20.70271484 8.26738281 21.96792969 8.24414062 23.27148438 C8.18529078 26.39052619 8.1031137 29.50715902 8 32.625 C9.02951782 32.60107178 9.02951782 32.60107178 10.07983398 32.57666016 C10.98032471 32.56425293 11.88081543 32.5518457 12.80859375 32.5390625 C13.70118896 32.52311035 14.59378418 32.5071582 15.51342773 32.49072266 C18.70647006 32.66315008 20.56232611 33.58049932 23 35.625 C24.40457737 38.43415474 24.24895157 40.51310534 24 43.625 C22.22015595 46.7609157 21.47691793 47.46602736 18 48.625 C14.52517506 48.87894579 11.04564065 48.85626084 7.5625 48.875 C6.60794922 48.895625 5.65339844 48.91625 4.66992188 48.9375 C3.74888672 48.94265625 2.82785156 48.9478125 1.87890625 48.953125 C1.0391626 48.9624707 0.19941895 48.97181641 -0.66577148 48.98144531 C-3.55257208 48.5406202 -4.8942602 47.62222064 -7 45.625 C-8.95821954 39.75034137 -8.30706286 33.02967829 -8.35009766 26.86523438 C-8.36666642 25.12518955 -8.39396889 23.38521305 -8.43212891 21.64550781 C-8.48696881 19.13050214 -8.5087786 16.61708593 -8.5234375 14.1015625 C-8.54610687 13.32745026 -8.56877625 12.55333801 -8.59213257 11.75576782 C-8.57635093 7.70959063 -8.18164113 5.85663687 -5.65478516 2.63427734 C-3 0.625 -3 0.625 0 0 Z " fill="#020202" transform="translate(120,215.375)"/>
<path d="M0 0 C15.84 0 31.68 0 48 0 C48 5.28 48 10.56 48 16 C32.16 16 16.32 16 0 16 C0 10.72 0 5.44 0 0 Z " fill="#E0B999" transform="translate(96,80)"/>
<path d="M0 0 C10.1207076 6.7471384 10.1207076 6.7471384 13.6484375 9.3671875 C14.8079895 10.22534058 14.8079895 10.22534058 15.9909668 11.10083008 C17.17106323 11.97904419 17.17106323 11.97904419 18.375 12.875 C20.03488933 14.1058288 21.69504447 15.33629921 23.35546875 16.56640625 C24.14872559 17.15437988 24.94198242 17.74235352 25.75927734 18.34814453 C29.56476614 21.15354192 33.40984724 23.9032145 37.26171875 26.64453125 C37.83535156 27.09183594 38.40898437 27.53914063 39 28 C39 28.33 39 28.66 39 29 C26.13 29 13.26 29 0 29 C0 19.43 0 9.86 0 0 Z " fill="#3295E5" transform="translate(224,123)"/>
<path d="M0 0 C12.87 0 25.74 0 39 0 C39 9.57 39 19.14 39 29 C33.28980752 25.19320501 27.75047006 21.39984744 22.3125 17.25 C16.34405372 12.72592342 10.31034402 8.31568846 4.1652832 4.03417969 C2.7601162 3.04617486 1.37728868 2.02651047 0 1 C0 0.67 0 0.34 0 0 Z " fill="#3295E5" transform="translate(409,200)"/>
<path d="M0 0 C12.87 0 25.74 0 39 0 C36.33431162 2.66568838 34.21649197 4.6995963 31.234375 6.8125 C30.51628662 7.32530518 29.79819824 7.83811035 29.05834961 8.36645508 C28.29659424 8.9055249 27.53483887 9.44459473 26.75 10 C19.70660934 15.02707856 12.74674444 20.14723504 5.86425781 25.39257812 C1.10412515 29 1.10412515 29 0 29 C0 19.43 0 9.86 0 0 Z " fill="#3295E5" transform="translate(224,200)"/>
<path d="M0 0 C0 9.57 0 19.14 0 29 C-12.87 29 -25.74 29 -39 29 C-36.33431162 26.33431162 -34.21649197 24.3004037 -31.234375 22.1875 C-30.15724243 21.41829224 -30.15724243 21.41829224 -29.05834961 20.63354492 C-27.91571655 19.82494019 -27.91571655 19.82494019 -26.75 19 C-19.70660934 13.97292144 -12.74674444 8.85276496 -5.86425781 3.60742188 C-1.10412515 0 -1.10412515 0 0 0 Z " fill="#3295E5" transform="translate(448,123)"/>
<path d="M0 0 C0.66 0 1.32 0 2 0 C3.69580078 2.18725586 3.69580078 2.18725586 5.6953125 5.21484375 C6.41074219 6.29314453 7.12617187 7.37144531 7.86328125 8.48242188 C8.41943115 9.33211548 8.41943115 9.33211548 8.98681641 10.19897461 C10.12080262 11.93108869 11.26449095 13.65645339 12.41015625 15.38085938 C18 23.84649073 18 23.84649073 18 25 C6.78 25 -4.44 25 -16 25 C-13.69 21.37 -11.38 17.74 -9 14 C-8.14792969 12.63488281 -7.29585937 11.26976562 -6.41796875 9.86328125 C-5.6745256 8.67965833 -4.93103768 7.49606354 -4.1875 6.3125 C-3.80658203 5.69439453 -3.42566406 5.07628906 -3.03320312 4.43945312 C-2.07534005 2.9246539 -1.04412987 1.45667813 0 0 Z " fill="#7C8185" transform="translate(119,39)"/>
<path d="M0 0 C7.87711771 4.50121012 7.87711771 4.50121012 11.33984375 7.0234375 C12.09330078 7.57 12.84675781 8.1165625 13.62304688 8.6796875 C14.38681641 9.23914063 15.15058594 9.79859375 15.9375 10.375 C16.69740234 10.92671875 17.45730469 11.4784375 18.24023438 12.046875 C20.49911118 13.69039595 22.75048049 15.34370095 25 17 C25.7748877 17.5662207 26.54977539 18.13244141 27.34814453 18.71582031 C28.0801709 19.25561523 28.81219727 19.79541016 29.56640625 20.3515625 C30.22713135 20.83705566 30.88785645 21.32254883 31.56860352 21.82275391 C32.04096436 22.21124512 32.5133252 22.59973633 33 23 C33 23.33 33 23.66 33 24 C22.11 24 11.22 24 0 24 C0 16.08 0 8.16 0 0 Z " fill="#3295E4" transform="translate(360,224)"/>
<path d="M0 0 C10.89 0 21.78 0 33 0 C27.37537029 5.62462971 27.37537029 5.62462971 24.14453125 7.8671875 C23.44392578 8.35735352 22.74332031 8.84751953 22.02148438 9.35253906 C21.29251953 9.85495117 20.56355469 10.35736328 19.8125 10.875 C19.06162109 11.39803711 18.31074219 11.92107422 17.53710938 12.45996094 C16.04510249 13.49896831 14.5518085 14.53613025 13.05712891 15.57128906 C11.26407994 16.816592 9.478999 18.07178406 7.69921875 19.3359375 C6.36310547 20.28339844 6.36310547 20.28339844 5 21.25 C4.236875 21.79140625 3.47375 22.3328125 2.6875 22.890625 C1 24 1 24 0 24 C0 16.08 0 8.16 0 0 Z " fill="#3295E5" transform="translate(360,104)"/>
<path d="M0 0 C0 7.92 0 15.84 0 24 C-10.89 24 -21.78 24 -33 24 C-27.37537029 18.37537029 -27.37537029 18.37537029 -24.14453125 16.1328125 C-23.44392578 15.64264648 -22.74332031 15.15248047 -22.02148438 14.64746094 C-20.92803711 13.89384277 -20.92803711 13.89384277 -19.8125 13.125 C-19.06162109 12.60196289 -18.31074219 12.07892578 -17.53710938 11.54003906 C-16.04510249 10.50103169 -14.5518085 9.46386975 -13.05712891 8.42871094 C-11.26407994 7.183408 -9.478999 5.92821594 -7.69921875 4.6640625 C-6.80847656 4.03242188 -5.91773438 3.40078125 -5 2.75 C-4.236875 2.20859375 -3.47375 1.6671875 -2.6875 1.109375 C-1 0 -1 0 0 0 Z " fill="#3295E5" transform="translate(312,224)"/>
<path d="M0 0 C10.89 0 21.78 0 33 0 C33 7.92 33 15.84 33 24 C25.1274915 19.50142372 25.1274915 19.50142372 21.40625 16.72265625 C20.60316406 16.12646484 19.80007813 15.53027344 18.97265625 14.91601562 C18.15667969 14.30435547 17.34070313 13.69269531 16.5 13.0625 C14.86492719 11.84459031 13.22951605 10.62713469 11.59375 9.41015625 C10.81902344 8.83152832 10.04429687 8.25290039 9.24609375 7.65673828 C7.15338605 6.11313889 5.03652777 4.61218103 2.90625 3.12109375 C1.9471875 2.42113281 0.988125 1.72117187 0 1 C0 0.67 0 0.34 0 0 Z " fill="#3295E5" transform="translate(279,104)"/>
<path d="M0 0 C0.33 0 0.66 0 1 0 C1 5.28 1 10.56 1 16 C-3.29 16 -7.58 16 -12 16 C-10.57765611 14.10354148 -9.15497723 12.20733314 -7.73046875 10.3125 C-6.58055124 8.77581566 -5.4372569 7.23415191 -4.30078125 5.6875 C-3.76839844 4.965625 -3.23601562 4.24375 -2.6875 3.5 C-2.19636719 2.8296875 -1.70523438 2.159375 -1.19921875 1.46875 C-0.80347656 0.9840625 -0.40773437 0.499375 0 0 Z " fill="#EFC5A3" transform="translate(175,288)"/>
<path d="M0 0 C2.830527 2.830527 5.21475791 5.42493816 7.625 8.5625 C8.21539062 9.32691406 8.80578125 10.09132813 9.4140625 10.87890625 C10.66195497 12.54788559 11.84404849 14.26607273 13 16 C8.71 16 4.42 16 0 16 C0 10.72 0 5.44 0 0 Z " fill="#EFC5A3" transform="translate(64,288)"/>
<path d="M0 0 C4.29 0 8.58 0 13 0 C13 5.28 13 10.56 13 16 C10.169473 13.169473 7.78524209 10.57506184 5.375 7.4375 C4.78460938 6.67308594 4.19421875 5.90867188 3.5859375 5.12109375 C2.33804503 3.45211441 1.15595151 1.73392727 0 0 Z " fill="#EFC5A3" transform="translate(163,208)"/>
<path d="M0 0 C4.29 0 8.58 0 13 0 C11.57765611 1.89645852 10.15497723 3.79266686 8.73046875 5.6875 C7.58055124 7.22418434 6.4372569 8.76584809 5.30078125 10.3125 C4.76839844 11.034375 4.23601562 11.75625 3.6875 12.5 C2.95080078 13.50546875 2.95080078 13.50546875 2.19921875 14.53125 C1.60560547 15.25828125 1.60560547 15.25828125 1 16 C0.67 16 0.34 16 0 16 C0 10.72 0 5.44 0 0 Z " fill="#EFC5A2" transform="translate(64,208)"/>
<path d="M0 0 C4.29 0 8.58 0 13 0 C13 2.31 13 4.62 13 7 C6.86592242 6.63195535 4.26093821 5.15701288 0 1 C0 0.67 0 0.34 0 0 Z " fill="#D8B293" transform="translate(195,320)"/>
</svg>
